{"asset":{"version":"2.0","generator":"Blockbench 4.9.4 glTF exporter"},"scenes":[{"nodes":[5],"name":"blockbench_export"}],"scene":0,"nodes":[{"name":"Pole","mesh":0},{"name":"Torso","mesh":1},{"name":"Arm L","mesh":2},{"name":"Arm R"},{"name":"Target","children":[0,1,2,3]},{"children":[4]}],"bufferViews":[{"buffer":0,"byteOffset":0,"byteLength":288,"target":34962,"byteStride":12},{"buffer":0,"byteOffset":288,"byteLength":288,"target":34962,"byteStride":12},{"buffer":0,"byteOffset":576,"byteLength":192,"target":34962,"byteStride":8},{"buffer":0,"byteOffset":768,"byteLength":72,"target":34963},{"buffer":0,"byteOffset":840,"byteLength":1152,"target":34962,"byteStride":12},{"buffer":0,"byteOffset":1992,"byteLength":1152,"target":34962,"byteStride":12},{"buffer":0,"byteOffset":3144,"byteLength":768,"target":34962,"byteStride":8},{"buffer":0,"byteOffset":3912,"byteLength":288,"target":34963},{"buffer":0,"byteOffset":4200,"byteLength":576,"target":34962,"byteStride":12},{"buffer":0,"byteOffset":4776,"byteLength":576,"target":34962,"byteStride":12},{"buffer":0,"byteOffset":5352,"byteLength":384,"target":34962,"byteStride":8},{"buffer":0,"byteOffset":5736,"byteLength":144,"target":34963}],"buffers":[{"byteLength":5880,"uri":"data:application/octet-stream;base64,"}],"accessors":[{"bufferView":0,"componentType":5126,"count":24,"max":[0.0625,1.375,0.0625],"min":[-0.0625,0,-0.0625],"type":"VEC3"},{"bufferView":1,"componentType":5126,"count":24,"max":[1,1,1],"min":[-1,-1,-1],"type":"VEC3"},{"bufferView":2,"componentType":5126,"count":24,"max":[0.484375,0.46875],"min":[0.21875,0],"type":"VEC2"},{"bufferView":3,"componentType":5123,"count":36,"max":[23],"min":[0],"type":"SCALAR"},{"bufferView":4,"componentType":5126,"count":96,"max":[0.1875,1.3125,0.1875],"min":[-0.1875,0.5625,-0.1875],"type":"VEC3"},{"bufferView":5,"componentType":5126,"count":96,"max":[1,0.948291540145874,1],"min":[-1,-0.948291540145874,-1],"type":"VEC3"},{"bufferView":6,"componentType":5126,"count":96,"max":[0.41788196563720703,0.45566028356552124],"min":[0,0],"type":"VEC2"},{"bufferView":7,"componentType":5123,"count":144,"max":[95],"min":[0],"type":"SCALAR"},{"bufferView":8,"componentType":5126,"count":48,"max":[0.46562498807907104,1,0.046875],"min":[-0.46562498807907104,0.875,-0.046875],"type":"VEC3"},{"bufferView":9,"componentType":5126,"count":48,"max":[1,1,1],"min":[-1,-1,-1],"type":"VEC3"},{"bufferView":10,"componentType":5126,"count":48,"max":[0.4375,0.453125],"min":[0.109375,0.078125],"type":"VEC2"},{"bufferView":11,"componentType":5123,"count":72,"max":[47],"min":[0],"type":"SCALAR"}],"materials":[{"pbrMetallicRoughness":{"metallicFactor":0,"roughnessFactor":1,"baseColorTexture":{"index":0}},"alphaMode":"MASK","alphaCutoff":0.05,"doubleSided":true}],"textures":[{"sampler":0,"source":0}],"samplers":[{"magFilter":9728,"minFilter":9728,"wrapS":33071,"wrapT":33071}],"images":[{"mimeType":"image/png","uri":"data:image/png;base64,"}],"meshes":[{"primitives":[{"mode":4,"attributes":{"POSITION":0,"NORMAL":1,"TEXCOORD_0":2},"indices":3,"material":0}]},{"primitives":[{"mode":4,"attributes":{"POSITION":4,"NORMAL":5,"TEXCOORD_0":6},"indices":7,"material":0}]},{"primitives":[{"mode":4,"attributes":{"POSITION":8,"NORMAL":9,"TEXCOORD_0":10},"indices":11,"material":0}]}]}